<?xml version="1.0" encoding="UTF-8"?>
<svg width="22px" height="10px" viewBox="0 0 22 10" version="1.1" xmlns="http://www.w3.org/2000/svg" xmlns:xlink="http://www.w3.org/1999/xlink">
    <!-- Generator: sketchtool 60.1 (101010) - https://sketch.com -->
    <title>34583C03-0A1C-42D3-8966-8E57F571D685</title>
    <desc>Created with sketchtool.</desc>
    <g id="Asset-Artboard-Page" stroke="none" stroke-width="1" fill="none" fill-rule="evenodd">
        <g id="CLX" fill="#DCDCDC">
            <path d="M4.44719414,-3.55271368e-15 C5.43096739,-3.55271368e-15 6.35788154,0.266922311 7.00936133,0.758660877 L6.29566882,1.64420384 C5.71932427,1.25021147 5.14279512,1.08103536 4.44719414,1.08103536 C3.41394609,1.08103536 2.6118266,1.57277392 2.12372442,2.47147503 C1.79124636,3.08990771 1.62528423,3.90420873 1.62528423,5.06983214 C1.62528423,6.15105547 1.74454067,6.78283426 2.00409878,7.34600274 C2.48961645,8.41124833 3.46065178,8.91877667 4.56645057,8.91877667 C5.37133917,8.91877667 5.93199208,8.72046467 6.4928296,8.31331416 L7.20670672,9.19885712 C6.40200272,9.73288972 5.44665903,10 4.38479681,10 C3.01943991,10 1.92656364,9.47912555 1.13976657,8.55128856 C0.394875395,7.66837723 -8.43769499e-15,6.50275381 -8.43769499e-15,5.09896803 C-8.43769499e-15,3.97545067 0.244235693,3.00550762 0.68286306,2.21771086 C1.4589529,0.84306096 2.83760154,-3.55271368e-15 4.44719414,-3.55271368e-15 Z M9.89363116,0.182183873 L9.89363116,8.73366063 L13.86823,8.73366063 L13.6241789,9.85717802 L8.40606418,9.85717802 L8.40606418,0.182183873 L9.89363116,0.182183873 Z M15.9771808,0.182183873 L17.8566694,3.46814798 L19.6479157,0.182183873 L21.3924563,0.182183873 L18.7523848,4.56516111 L21.9999994,9.85717802 L20.2240756,9.85717802 L17.8721764,5.70183665 L15.613504,9.85717802 L13.8379494,9.85717802 L16.991968,4.6495612 L14.2014415,0.182183873 L15.9771808,0.182183873 Z"></path>
        </g>
    </g>
</svg>